M48
; DRILL file {KiCad (6.0.7)} date Tue Sep 20 21:37:41 2022
; FORMAT={-:-/ absolute / inch / decimal}
; #@! TF.CreationDate,2022-09-20T21:37:41+02:00
; #@! TF.GenerationSoftware,Kicad,Pcbnew,(6.0.7)
; #@! TF.FileFunction,NonPlated,1,2,NPTH
FMAT,2
INCH
; #@! TA.AperFunction,NonPlated,NPTH,ComponentDrill
T1C0.0689
; #@! TA.AperFunction,NonPlated,NPTH,ComponentDrill
T2C0.1181
; #@! TA.AperFunction,NonPlated,NPTH,ComponentDrill
T3C0.1200
; #@! TA.AperFunction,NonPlated,NPTH,ComponentDrill
T4C0.1570
%
G90
G05
T1
X0.7375Y-0.9375
X0.7375Y-1.875
X0.7375Y-3.375
X0.925Y-2.625
X1.1375Y-0.9375
X1.1375Y-1.875
X1.1375Y-3.375
X1.325Y-2.625
X1.4875Y-1.875
X1.5813Y-3.375
X1.675Y-0.9375
X1.8625Y-2.625
X1.8875Y-1.875
X1.9812Y-3.375
X2.075Y-0.9375
X2.2375Y-1.875
X2.2625Y-2.625
X2.425Y-0.9375
X2.6125Y-2.625
X2.6375Y-1.875
X2.825Y-0.9375
X2.9875Y-1.875
X3.0125Y-2.625
X3.175Y-0.9375
X3.175Y-3.375
X3.3625Y-2.625
X3.3875Y-1.875
X3.575Y-0.9375
X3.575Y-3.375
X3.7375Y-1.875
X3.7625Y-2.625
X4.1125Y-0.9375
X4.1125Y-2.625
X4.1375Y-1.875
X4.4875Y-1.875
X4.5125Y-0.9375
X4.5125Y-2.625
X4.7687Y-3.375
X4.8625Y-0.9375
X4.8875Y-1.875
X5.1688Y-3.375
X5.2375Y-2.625
X5.2625Y-0.9375
X5.425Y-1.875
X5.6125Y-0.9375
X5.6375Y-2.625
X5.8Y-3.5625
X5.825Y-1.875
X6.0125Y-0.9375
X6.2Y-3.5625
X6.55Y-2.8125
X6.55Y-3.5625
X6.95Y-2.8125
X6.95Y-3.5625
X7.3Y-3.5625
X7.4875Y-1.875
X7.4875Y-2.625
X7.7Y-3.5625
X7.8875Y-1.875
X7.8875Y-2.625
T2
X0.7875Y-0.8375
X0.7875Y-1.775
X0.7875Y-3.275
X0.975Y-2.525
X1.0375Y-0.7375
X1.0375Y-1.675
X1.0375Y-3.175
X1.225Y-2.425
X1.5375Y-1.775
X1.6312Y-3.275
X1.725Y-0.8375
X1.7875Y-1.675
X1.8812Y-3.175
X1.9125Y-2.525
X1.975Y-0.7375
X2.1625Y-2.425
X2.2875Y-1.775
X2.475Y-0.8375
X2.5375Y-1.675
X2.6625Y-2.525
X2.725Y-0.7375
X2.9125Y-2.425
X3.0375Y-1.775
X3.225Y-0.8375
X3.225Y-3.275
X3.2875Y-1.675
X3.4125Y-2.525
X3.475Y-0.7375
X3.475Y-3.175
X3.6625Y-2.425
X3.7875Y-1.775
X4.0375Y-1.675
X4.1625Y-0.8375
X4.1625Y-2.525
X4.4125Y-0.7375
X4.4125Y-2.425
X4.5375Y-1.775
X4.7875Y-1.675
X4.8187Y-3.275
X4.9125Y-0.8375
X5.0687Y-3.175
X5.1625Y-0.7375
X5.2875Y-2.525
X5.475Y-1.775
X5.5375Y-2.425
X5.6625Y-0.8375
X5.725Y-1.675
X5.85Y-3.4625
X5.9125Y-0.7375
X6.1Y-3.3625
X6.6Y-2.7125
X6.6Y-3.4625
X6.85Y-2.6125
X6.85Y-3.3625
X7.35Y-3.4625
X7.5375Y-1.775
X7.5375Y-2.525
X7.6Y-3.3625
X7.7875Y-1.675
X7.7875Y-2.425
T3
X2.625Y-3.1
X4.125Y-3.1
X4.9675Y-2.35
X5.9075Y-2.35
T4
X0.9375Y-0.9375
X0.9375Y-1.875
X0.9375Y-3.375
X1.125Y-2.625
X1.6875Y-1.875
X1.7812Y-3.375
X1.875Y-0.9375
X2.0625Y-2.625
X2.4375Y-1.875
X2.625Y-0.9375
X2.625Y-3.7
X2.8125Y-2.625
X3.1875Y-1.875
X3.375Y-0.9375
X3.375Y-3.375
X3.5625Y-2.625
X3.9375Y-1.875
X4.125Y-3.7
X4.3125Y-0.9375
X4.3125Y-2.625
X4.6875Y-1.875
X4.9675Y-2.95
X4.9688Y-3.375
X5.0625Y-0.9375
X5.4375Y-2.625
X5.625Y-1.875
X5.8125Y-0.9375
X5.9075Y-2.95
X6.0Y-3.5625
X6.75Y-2.8125
X6.75Y-3.5625
X7.5Y-3.5625
X7.6875Y-1.875
X7.6875Y-2.625
T0
M30
