M48
; DRILL file {KiCad (6.0.7)} date Tue Sep 20 21:37:41 2022
; FORMAT={-:-/ absolute / inch / decimal}
; #@! TF.CreationDate,2022-09-20T21:37:41+02:00
; #@! TF.GenerationSoftware,Kicad,Pcbnew,(6.0.7)
; #@! TF.FileFunction,Plated,1,2,PTH
FMAT,2
INCH
; #@! TA.AperFunction,Plated,PTH,ViaDrill
T1C0.0157
; #@! TA.AperFunction,Plated,PTH,ComponentDrill
T2C0.0394
; #@! TA.AperFunction,Plated,PTH,ComponentDrill
T3C0.0430
; #@! TA.AperFunction,Plated,PTH,ComponentDrill
T4C0.0591
; #@! TA.AperFunction,Plated,PTH,ComponentDrill
T5C0.0866
%
G90
G05
T1
X0.6562Y-0.84
X0.6562Y-1.775
X0.6562Y-3.275
X0.8462Y-2.525
X1.4062Y-1.775
X1.4173Y-0.8661
X1.5012Y-3.275
X1.5913Y-0.84
X1.7812Y-2.525
X1.8504Y-0.7874
X2.1562Y-1.775
X2.3462Y-0.84
X2.5312Y-2.525
X2.5591Y-1.9291
X2.5984Y-0.7874
X2.9062Y-1.775
X3.0709Y-1.9291
X3.0962Y-0.84
X3.0962Y-3.28
X3.189Y-1.7323
X3.2812Y-2.525
X3.3465Y-0.7874
X3.5433Y-1.9291
X3.6562Y-1.775
X3.8462Y-0.85
X4.0312Y-0.835
X4.0312Y-2.525
X4.0551Y-1.9291
X4.4062Y-1.775
X4.5669Y-1.9291
X4.685Y-1.7323
X4.6863Y-3.275
X4.7812Y-0.835
X5.0394Y-0.7874
X5.1463Y-1.85
X5.1562Y-2.525
X5.3462Y-1.775
X5.5312Y-0.835
X5.7212Y-3.465
X5.748Y-1.9291
X5.874Y-3.6063
X6.2812Y-1.08
X6.4712Y-2.715
X6.4712Y-3.465
X6.5715Y-1.305
X6.6013Y-1.25
X6.622Y-2.8583
X6.6285Y-1.2807
X7.0012Y-1.08
X7.2212Y-3.465
X7.2598Y-0.937
X7.3125Y-2.0903
X7.3125Y-2.8403
X7.3376Y-1.1909
X7.4062Y-1.775
X7.4062Y-2.525
X7.875Y-3.7778
T2
X6.6Y-2.0427
X6.7Y-2.0427
X6.8Y-2.0427
X6.9Y-2.0427
X7.3925Y-0.8391
X7.3925Y-0.9375
X7.3925Y-1.0359
X7.9633Y-0.8391
X7.9633Y-1.0359
T3
X6.45Y-0.7312
X6.45Y-0.8312
X6.45Y-0.9313
X6.45Y-1.0312
X6.45Y-1.1312
X6.45Y-1.2312
X6.45Y-1.3313
X6.45Y-1.4312
X6.45Y-1.5312
X6.45Y-1.6312
X6.45Y-1.7312
X6.45Y-1.8313
X6.55Y-1.8313
X6.65Y-1.8313
X6.75Y-1.8313
X6.85Y-1.8313
X6.95Y-1.8313
X7.05Y-0.7312
X7.05Y-0.8312
X7.05Y-0.9313
X7.05Y-1.0312
X7.05Y-1.1312
X7.05Y-1.2312
X7.05Y-1.3313
X7.05Y-1.4312
X7.05Y-1.5312
X7.05Y-1.6312
X7.05Y-1.7312
X7.05Y-1.8313
T5
X1.3125Y-1.4375
X1.3125Y-3.0
X7.3125Y-1.4375
X7.3125Y-3.0
T4
G00X7.6622Y-0.717
M15
G01X7.7133Y-0.717
M16
G05
G00X7.6622Y-1.158
M15
G01X7.7133Y-1.158
M16
G05
T0
M30
